<mxfile host="app.diagrams.net" modified="2023-06-01T14:17:29.478Z" agent="Mozilla/5.0 (X11; Linux x86_64) AppleWebKit/537.36 (KHTML, like Gecko) Chrome/108.0.0.0 Safari/537.36" version="21.3.6" etag="G_QbT9X4ss8L-xmjqMe_" type="github">
  <diagram name="PÃ¡gina-1" id="366kwpeUz9s277J8ObEJ">
    <mxGraphModel>
      <root>
        <mxCell id="0" />
        <mxCell id="1" parent="0" />
      </root>
    </mxGraphModel>
  </diagram>
</mxfile>
